<?xml version="1.0" encoding="UTF-8"?>
<svg width="220px" height="220px" viewBox="0 0 260 260" version="1.1" xmlns="http://www.w3.org/2000/svg" xmlns:xlink="http://www.w3.org/1999/xlink">
    <!-- Generator: Sketch 52.6 (67491) - http://www.bohemiancoding.com/sketch -->
    <title>Artboard</title>
    <desc>Created with Sketch.</desc>
    <g id="Artboard" stroke="none" stroke-width="1" fill="none" fill-rule="evenodd">
        <path d="M203.196816,159 L229,165.627876 C227.858061,169.825773 226.259824,174.02334 224.661246,178 L200,168.058186 C201.141939,165.186062 202.283537,162.093031 203.196816,159 Z M200,109.941972 L224.661246,100 C226.488143,103.976921 227.858061,108.174415 229,112.371909 L203.196816,119 C202.283537,115.907023 201.141939,112.814045 200,109.941972 Z M208.965016,241.775025 L192.866233,220.850017 C196.494085,218.149983 199.895217,215.224975 203.06963,212.074992 L221.889386,230.749916 C225.970677,226.700034 229.598868,222.649815 233,218.149983 L211.912709,202.175092 C209.191736,205.775025 206.244042,209.149983 203.06963,212.299966 L184.023154,193.400067 C181.755619,195.650151 179.261704,197.900235 176.54073,199.925008 L160.441947,179 C158.627852,180.350185 156.814095,181.475059 155,182.600269 L168.15109,205.325076 C171.098783,203.749916 173.819757,201.725143 176.54073,199.700034 L192.639513,220.625042 C189.011661,223.325076 185.383809,225.799799 181.5289,228.049882 L194.907048,251 C199.668497,248.299966 204.430286,245.149983 208.965016,241.775025 Z M130,9 C58.1816996,9 0,67.3016195 0,139.267947 C0,187.549007 26.1362812,229.453317 64.9998304,252 L78.4091828,228.770167 L87.500137,213.056008 L91.818196,205.540674 L105.227209,182.311181 C90.227118,173.656923 80.2271701,157.48733 80.2271701,139.04023 C80.2271701,111.483438 102.499889,89.1648118 130,89.1648118 C143.86351,89.1648118 156.136281,94.8584116 165.227235,103.740387 C166.818313,105.334404 168.181804,106.928762 169.545634,108.750496 L190.681771,92.5809037 C192.727346,95.3138453 194.545334,98.0467868 196.36366,101.007445 L173.181947,114.444096 C174.31819,116.26617 175.227183,118.315622 176.136516,120.365413 C177.04551,122.415204 177.727255,124.464655 178.181752,126.514446 C178.636249,128.563897 179.091085,130.841405 179.545581,132.891196 C179.77283,134.940987 180.000078,137.218156 180.000078,139.495663 L206.590856,139.495663 C206.590856,142.911755 206.363608,146.327847 205.909111,149.516222 L179.318333,145.644697 C179.091085,147.922205 178.636249,149.971656 177.954503,152.021447 C177.500007,154.071238 176.591013,156.120689 175.909268,158.170481 L200.681719,168.418756 C199.318229,171.607132 197.954738,174.56779 196.136412,177.528448 L172.954699,164.091797 C171.818118,165.913532 170.681876,167.735606 169.318046,169.55734 L190.454523,185.727273 C192.500098,182.994331 194.318085,180.26139 196.136412,177.300731 L219.318124,190.737382 C221.590948,186.865857 223.636523,182.766614 225.227261,178.667032 L250.000052,188.915648 C252.045627,183.677482 254.090863,178.211599 255.454693,172.745716 L229.772908,165.913532 C230.90915,161.586573 231.818144,157.259613 232.500228,152.704598 L258.863758,156.120689 C259.545503,150.654806 260,144.961546 260,139.04023 L233.409222,139.04023 C233.409222,134.485214 233.181974,129.930538 232.500228,125.603579 L258.863758,122.187147 C258.182013,116.493887 257.045431,111.028004 255.454693,105.562121 C254.090863,100.096238 252.045627,94.6306948 250.000052,89.3925286 L225.45451,99.6408044 C223.636523,95.5415621 221.818196,91.4423197 219.545373,87.5704543 L242.727425,74.1338034 C219.318124,33.8235107 176.591013,9 130,9 Z" id="Shape" fill="#FE5200"></path>
    </g>
</svg>